# xmcd
# 
# Track frame offsets:
#     150
#     11790
#     23885
#     35827
#     47350
#     62875
#     77587
#     92180
#     105287
#     118900
#     132155
#     153200
#     171990
#     185020
#     200027
#     211935
#     229834
#     246715
# 
# Disc length: 3455
# 
# Revision: 1
# Processed by: cddbd v1.5.2PL0 Copyright (c) Steve Scherf et al.
# Submitted via: BonkEnc v1.0beta4
# 
DISCID=fe0d7d12
DTITLE=Various Artist - The Greatest Country Classics CD1
DYEAR=0
DGENRE=Country
TTITLE0=Johnny Cash - Ring Of Fire
TTITLE1=Tammy Wynette - Stand By Your Man
TTITLE2=Charlie Rich - The Most Beautiful Girl
TTITLE3=Crystal Clark - Never Ending Song Of Love
TTITLE4=Roy Clark - Me And Bobby McGee
TTITLE5=Olivia Newton-John - Banks Of The Ohio
TTITLE6=Glen Campbell - Rhinestone Cowboy
TTITLE7=Lynn Anderson - Rose Garden
TTITLE8=Pirats Of The Mississippi - Honky Tonk Blues
TTITLE9=Lace J. Dalton and Glen Campbell - Shaky Ground
TTITLE10=Clint Black - We Tell Ourselves
TTITLE11=Jimmy Buffett - Margaritaville
TTITLE12=Dr. Hook - A Little Bit More
TTITLE13=Billy Dean - Somewhere In My Broken Heart
TTITLE14=Dolly Parton - Joelene
TTITLE15=Vince Gill - I Still Believe In You
TTITLE16=Dean Dillon - I Go To Pieces
TTITLE17=Lee Greenwood and Suzy Bogguss - Hopelessly Yours
EXTD=
EXTT0=
EXTT1=
EXTT2=
EXTT3=
EXTT4=
EXTT5=
EXTT6=
EXTT7=
EXTT8=
EXTT9=
EXTT10=
EXTT11=
EXTT12=
EXTT13=
EXTT14=
EXTT15=
EXTT16=
EXTT17=
PLAYORDER=
